<svg xmlns="http://www.w3.org/2000/svg" version="1.1" xmlns:xlink="http://www.w3.org/1999/xlink" xmlns:svgjs="http://svgjs.com/svgjs" width="1440" height="250" preserveAspectRatio="none" viewBox="0 0 1440 250"><g mask="url(&quot;#SvgjsMask1301&quot;)" fill="none"><rect width="1440" height="250" x="0" y="0" fill="url(#SvgjsLinearGradient1302)"></rect><path d="M34 250L284 0L458 0L208 250z" fill="url(#SvgjsLinearGradient1303)"></path><path d="M252.60000000000002 250L502.6 0L723.1 0L473.1 250z" fill="url(#SvgjsLinearGradient1303)"></path><path d="M520.2 250L770.2 0L978.7 0L728.7 250z" fill="url(#SvgjsLinearGradient1303)"></path><path d="M729.8000000000001 250L979.8000000000001 0L1095.3000000000002 0L845.3000000000001 250z" fill="url(#SvgjsLinearGradient1303)"></path><path d="M1438 250L1188 0L1092 0L1342 250z" fill="url(#SvgjsLinearGradient1304)"></path><path d="M1196.4 250L946.4000000000001 0L778.4000000000001 0L1028.4 250z" fill="url(#SvgjsLinearGradient1304)"></path><path d="M945.8 250L695.8 0L647.8 0L897.8 250z" fill="url(#SvgjsLinearGradient1304)"></path><path d="M699.1999999999999 250L449.19999999999993 0L231.69999999999993 0L481.69999999999993 250z" fill="url(#SvgjsLinearGradient1304)"></path><path d="M1314.1882736978284 250L1440 124.18827369782836L1440 250z" fill="url(#SvgjsLinearGradient1303)"></path><path d="M0 250L125.81172630217164 250L 0 124.18827369782836z" fill="url(#SvgjsLinearGradient1304)"></path></g><defs><mask id="SvgjsMask1301"><rect width="1440" height="250" fill="#ffffff"></rect></mask><linearGradient x1="20.66%" y1="-119%" x2="79.34%" y2="219%" gradientUnits="userSpaceOnUse" id="SvgjsLinearGradient1302"><stop stop-color="rgba(232, 224, 224, 1)" offset="0.08"></stop><stop stop-color="rgba(219, 224, 230, 1)" offset="1"></stop></linearGradient><linearGradient x1="0%" y1="100%" x2="100%" y2="0%" id="SvgjsLinearGradient1303"><stop stop-color="rgba(245, 2, 2, 0.2)" offset="0"></stop><stop stop-opacity="0" stop-color="rgba(245, 2, 2, 0.2)" offset="0.66"></stop></linearGradient><linearGradient x1="100%" y1="100%" x2="0%" y2="0%" id="SvgjsLinearGradient1304"><stop stop-color="rgba(245, 2, 2, 0.2)" offset="0"></stop><stop stop-opacity="0" stop-color="rgba(245, 2, 2, 0.2)" offset="0.66"></stop></linearGradient></defs></svg>