<svg xmlns="http://www.w3.org/2000/svg" version="1.1" xmlns:xlink="http://www.w3.org/1999/xlink" xmlns:svgjs="http://svgjs.com/svgjs" width="1440" height="560" preserveAspectRatio="none" viewBox="0 0 1440 560"><g mask="url(&quot;#SvgjsMask1004&quot;)" fill="none"><path d="M119.32 69.71L184.28 107.21L184.28 182.21L119.32 219.71L54.37 182.21L54.37 107.21zM54.37 182.21L119.32 219.71L119.32 294.71L54.37 332.21L-10.58 294.71L-10.58 219.71zM184.28 407.21L249.23 444.71L249.23 519.71L184.28 557.21L119.32 519.71L119.32 444.71zM249.23 519.71L314.19 557.21L314.19 632.21L249.23 669.71L184.28 632.21L184.28 557.21zM314.19 -42.79L379.14 -5.29L379.14 69.71L314.19 107.21L249.23 69.71L249.23 -5.29zM379.14 69.71L444.09 107.21L444.09 182.21L379.14 219.71L314.19 182.21L314.19 107.21zM314.19 182.21L379.14 219.71L379.14 294.71L314.19 332.21L249.23 294.71L249.23 219.71zM379.14 519.71L444.09 557.21L444.09 632.21L379.14 669.71L314.19 632.21L314.19 557.21zM444.09 -42.79L509.05 -5.29L509.05 69.71L444.09 107.21L379.14 69.71L379.14 -5.29zM509.05 69.71L574 107.21L574 182.21L509.05 219.71L444.09 182.21L444.09 107.21zM638.95 69.71L703.91 107.21L703.91 182.21L638.95 219.71L574 182.21L574 107.21zM768.86 69.71L833.82 107.21L833.82 182.21L768.86 219.71L703.91 182.21L703.91 107.21zM768.86 294.71L833.82 332.21L833.82 407.21L768.86 444.71L703.91 407.21L703.91 332.21zM768.86 519.71L833.82 557.21L833.82 632.21L768.86 669.71L703.91 632.21L703.91 557.21zM833.81 -42.79L898.77 -5.29L898.77 69.71L833.81 107.21L768.86 69.71L768.86 -5.29zM898.77 519.71L963.72 557.21L963.72 632.21L898.77 669.71L833.81 632.21L833.81 557.21zM963.72 182.21L1028.68 219.71L1028.68 294.71L963.72 332.21L898.77 294.71L898.77 219.71zM1158.58 519.71L1223.54 557.21L1223.54 632.21L1158.58 669.71L1093.63 632.21L1093.63 557.21zM1223.54 182.21L1288.49 219.71L1288.49 294.71L1223.54 332.21L1158.58 294.71L1158.58 219.71zM1288.49 294.71L1353.44 332.21L1353.44 407.21L1288.49 444.71L1223.54 407.21L1223.54 332.21zM1288.49 519.71L1353.44 557.21L1353.44 632.21L1288.49 669.71L1223.54 632.21L1223.54 557.21zM1418.4 294.71L1483.35 332.21L1483.35 407.21L1418.4 444.71L1353.44 407.21L1353.44 332.21zM1483.35 -42.79L1548.31 -5.29L1548.31 69.71L1483.35 107.21L1418.4 69.71L1418.4 -5.29zM1483.35 182.21L1548.31 219.71L1548.31 294.71L1483.35 332.21L1418.4 294.71L1418.4 219.71zM1548.31 519.71L1613.26 557.21L1613.26 632.21L1548.31 669.71L1483.35 632.21L1483.35 557.21z" stroke="rgba(197, 200, 203, 1)" stroke-width="2"></path><path d="M111.82 69.71 a7.5 7.5 0 1 0 15 0 a7.5 7.5 0 1 0 -15 0zM176.78 107.21 a7.5 7.5 0 1 0 15 0 a7.5 7.5 0 1 0 -15 0zM176.78 182.21 a7.5 7.5 0 1 0 15 0 a7.5 7.5 0 1 0 -15 0zM111.82 219.71 a7.5 7.5 0 1 0 15 0 a7.5 7.5 0 1 0 -15 0zM46.87 182.21 a7.5 7.5 0 1 0 15 0 a7.5 7.5 0 1 0 -15 0zM46.87 107.21 a7.5 7.5 0 1 0 15 0 a7.5 7.5 0 1 0 -15 0zM111.82 294.71 a7.5 7.5 0 1 0 15 0 a7.5 7.5 0 1 0 -15 0zM46.87 332.21 a7.5 7.5 0 1 0 15 0 a7.5 7.5 0 1 0 -15 0zM-18.08 294.71 a7.5 7.5 0 1 0 15 0 a7.5 7.5 0 1 0 -15 0zM-18.08 219.71 a7.5 7.5 0 1 0 15 0 a7.5 7.5 0 1 0 -15 0zM176.78 407.21 a7.5 7.5 0 1 0 15 0 a7.5 7.5 0 1 0 -15 0zM241.73 444.71 a7.5 7.5 0 1 0 15 0 a7.5 7.5 0 1 0 -15 0zM241.73 519.71 a7.5 7.5 0 1 0 15 0 a7.5 7.5 0 1 0 -15 0zM176.78 557.21 a7.5 7.5 0 1 0 15 0 a7.5 7.5 0 1 0 -15 0zM111.82 519.71 a7.5 7.5 0 1 0 15 0 a7.5 7.5 0 1 0 -15 0zM111.82 444.71 a7.5 7.5 0 1 0 15 0 a7.5 7.5 0 1 0 -15 0zM306.69 557.21 a7.5 7.5 0 1 0 15 0 a7.5 7.5 0 1 0 -15 0zM306.69 632.21 a7.5 7.5 0 1 0 15 0 a7.5 7.5 0 1 0 -15 0zM241.73 669.71 a7.5 7.5 0 1 0 15 0 a7.5 7.5 0 1 0 -15 0zM176.78 632.21 a7.5 7.5 0 1 0 15 0 a7.5 7.5 0 1 0 -15 0zM306.69 -42.79 a7.5 7.5 0 1 0 15 0 a7.5 7.5 0 1 0 -15 0zM371.64 -5.29 a7.5 7.5 0 1 0 15 0 a7.5 7.5 0 1 0 -15 0zM371.64 69.71 a7.5 7.5 0 1 0 15 0 a7.5 7.5 0 1 0 -15 0zM306.69 107.21 a7.5 7.5 0 1 0 15 0 a7.5 7.5 0 1 0 -15 0zM241.73 69.71 a7.5 7.5 0 1 0 15 0 a7.5 7.5 0 1 0 -15 0zM241.73 -5.29 a7.5 7.5 0 1 0 15 0 a7.5 7.5 0 1 0 -15 0zM436.59 107.21 a7.5 7.5 0 1 0 15 0 a7.5 7.5 0 1 0 -15 0zM436.59 182.21 a7.5 7.5 0 1 0 15 0 a7.5 7.5 0 1 0 -15 0zM371.64 219.71 a7.5 7.5 0 1 0 15 0 a7.5 7.5 0 1 0 -15 0zM306.69 182.21 a7.5 7.5 0 1 0 15 0 a7.5 7.5 0 1 0 -15 0zM371.64 294.71 a7.5 7.5 0 1 0 15 0 a7.5 7.5 0 1 0 -15 0zM306.69 332.21 a7.5 7.5 0 1 0 15 0 a7.5 7.5 0 1 0 -15 0zM241.73 294.71 a7.5 7.5 0 1 0 15 0 a7.5 7.5 0 1 0 -15 0zM241.73 219.71 a7.5 7.5 0 1 0 15 0 a7.5 7.5 0 1 0 -15 0zM371.64 519.71 a7.5 7.5 0 1 0 15 0 a7.5 7.5 0 1 0 -15 0zM436.59 557.21 a7.5 7.5 0 1 0 15 0 a7.5 7.5 0 1 0 -15 0zM436.59 632.21 a7.5 7.5 0 1 0 15 0 a7.5 7.5 0 1 0 -15 0zM371.64 669.71 a7.5 7.5 0 1 0 15 0 a7.5 7.5 0 1 0 -15 0zM436.59 -42.79 a7.5 7.5 0 1 0 15 0 a7.5 7.5 0 1 0 -15 0zM501.55 -5.29 a7.5 7.5 0 1 0 15 0 a7.5 7.5 0 1 0 -15 0zM501.55 69.71 a7.5 7.5 0 1 0 15 0 a7.5 7.5 0 1 0 -15 0zM566.5 107.21 a7.5 7.5 0 1 0 15 0 a7.5 7.5 0 1 0 -15 0zM566.5 182.21 a7.5 7.5 0 1 0 15 0 a7.5 7.5 0 1 0 -15 0zM501.55 219.71 a7.5 7.5 0 1 0 15 0 a7.5 7.5 0 1 0 -15 0zM631.45 69.71 a7.5 7.5 0 1 0 15 0 a7.5 7.5 0 1 0 -15 0zM696.41 107.21 a7.5 7.5 0 1 0 15 0 a7.5 7.5 0 1 0 -15 0zM696.41 182.21 a7.5 7.5 0 1 0 15 0 a7.5 7.5 0 1 0 -15 0zM631.45 219.71 a7.5 7.5 0 1 0 15 0 a7.5 7.5 0 1 0 -15 0zM761.36 69.71 a7.5 7.5 0 1 0 15 0 a7.5 7.5 0 1 0 -15 0zM826.32 107.21 a7.5 7.5 0 1 0 15 0 a7.5 7.5 0 1 0 -15 0zM826.32 182.21 a7.5 7.5 0 1 0 15 0 a7.5 7.5 0 1 0 -15 0zM761.36 219.71 a7.5 7.5 0 1 0 15 0 a7.5 7.5 0 1 0 -15 0zM761.36 294.71 a7.5 7.5 0 1 0 15 0 a7.5 7.5 0 1 0 -15 0zM826.32 332.21 a7.5 7.5 0 1 0 15 0 a7.5 7.5 0 1 0 -15 0zM826.32 407.21 a7.5 7.5 0 1 0 15 0 a7.5 7.5 0 1 0 -15 0zM761.36 444.71 a7.5 7.5 0 1 0 15 0 a7.5 7.5 0 1 0 -15 0zM696.41 407.21 a7.5 7.5 0 1 0 15 0 a7.5 7.5 0 1 0 -15 0zM696.41 332.21 a7.5 7.5 0 1 0 15 0 a7.5 7.5 0 1 0 -15 0zM761.36 519.71 a7.5 7.5 0 1 0 15 0 a7.5 7.5 0 1 0 -15 0zM826.32 557.21 a7.5 7.5 0 1 0 15 0 a7.5 7.5 0 1 0 -15 0zM826.32 632.21 a7.5 7.5 0 1 0 15 0 a7.5 7.5 0 1 0 -15 0zM761.36 669.71 a7.5 7.5 0 1 0 15 0 a7.5 7.5 0 1 0 -15 0zM696.41 632.21 a7.5 7.5 0 1 0 15 0 a7.5 7.5 0 1 0 -15 0zM696.41 557.21 a7.5 7.5 0 1 0 15 0 a7.5 7.5 0 1 0 -15 0zM826.31 -42.79 a7.5 7.5 0 1 0 15 0 a7.5 7.5 0 1 0 -15 0zM891.27 -5.29 a7.5 7.5 0 1 0 15 0 a7.5 7.5 0 1 0 -15 0zM891.27 69.71 a7.5 7.5 0 1 0 15 0 a7.5 7.5 0 1 0 -15 0zM826.31 107.21 a7.5 7.5 0 1 0 15 0 a7.5 7.5 0 1 0 -15 0zM761.36 -5.29 a7.5 7.5 0 1 0 15 0 a7.5 7.5 0 1 0 -15 0zM891.27 519.71 a7.5 7.5 0 1 0 15 0 a7.5 7.5 0 1 0 -15 0zM956.22 557.21 a7.5 7.5 0 1 0 15 0 a7.5 7.5 0 1 0 -15 0zM956.22 632.21 a7.5 7.5 0 1 0 15 0 a7.5 7.5 0 1 0 -15 0zM891.27 669.71 a7.5 7.5 0 1 0 15 0 a7.5 7.5 0 1 0 -15 0zM826.31 632.21 a7.5 7.5 0 1 0 15 0 a7.5 7.5 0 1 0 -15 0zM826.31 557.21 a7.5 7.5 0 1 0 15 0 a7.5 7.5 0 1 0 -15 0zM956.22 182.21 a7.5 7.5 0 1 0 15 0 a7.5 7.5 0 1 0 -15 0zM1021.18 219.71 a7.5 7.5 0 1 0 15 0 a7.5 7.5 0 1 0 -15 0zM1021.18 294.71 a7.5 7.5 0 1 0 15 0 a7.5 7.5 0 1 0 -15 0zM956.22 332.21 a7.5 7.5 0 1 0 15 0 a7.5 7.5 0 1 0 -15 0zM891.27 294.71 a7.5 7.5 0 1 0 15 0 a7.5 7.5 0 1 0 -15 0zM891.27 219.71 a7.5 7.5 0 1 0 15 0 a7.5 7.5 0 1 0 -15 0zM1151.08 519.71 a7.5 7.5 0 1 0 15 0 a7.5 7.5 0 1 0 -15 0zM1216.04 557.21 a7.5 7.5 0 1 0 15 0 a7.5 7.5 0 1 0 -15 0zM1216.04 632.21 a7.5 7.5 0 1 0 15 0 a7.5 7.5 0 1 0 -15 0zM1151.08 669.71 a7.5 7.5 0 1 0 15 0 a7.5 7.5 0 1 0 -15 0zM1086.13 632.21 a7.5 7.5 0 1 0 15 0 a7.5 7.5 0 1 0 -15 0zM1086.13 557.21 a7.5 7.5 0 1 0 15 0 a7.5 7.5 0 1 0 -15 0zM1216.04 182.21 a7.5 7.5 0 1 0 15 0 a7.5 7.5 0 1 0 -15 0zM1280.99 219.71 a7.5 7.5 0 1 0 15 0 a7.5 7.5 0 1 0 -15 0zM1280.99 294.71 a7.5 7.5 0 1 0 15 0 a7.5 7.5 0 1 0 -15 0zM1216.04 332.21 a7.5 7.5 0 1 0 15 0 a7.5 7.5 0 1 0 -15 0zM1151.08 294.71 a7.5 7.5 0 1 0 15 0 a7.5 7.5 0 1 0 -15 0zM1151.08 219.71 a7.5 7.5 0 1 0 15 0 a7.5 7.5 0 1 0 -15 0zM1345.94 332.21 a7.5 7.5 0 1 0 15 0 a7.5 7.5 0 1 0 -15 0zM1345.94 407.21 a7.5 7.5 0 1 0 15 0 a7.5 7.5 0 1 0 -15 0zM1280.99 444.71 a7.5 7.5 0 1 0 15 0 a7.5 7.5 0 1 0 -15 0zM1216.04 407.21 a7.5 7.5 0 1 0 15 0 a7.5 7.5 0 1 0 -15 0zM1280.99 519.71 a7.5 7.5 0 1 0 15 0 a7.5 7.5 0 1 0 -15 0zM1345.94 557.21 a7.5 7.5 0 1 0 15 0 a7.5 7.5 0 1 0 -15 0zM1345.94 632.21 a7.5 7.5 0 1 0 15 0 a7.5 7.5 0 1 0 -15 0zM1280.99 669.71 a7.5 7.5 0 1 0 15 0 a7.5 7.5 0 1 0 -15 0zM1410.9 294.71 a7.5 7.5 0 1 0 15 0 a7.5 7.5 0 1 0 -15 0zM1475.85 332.21 a7.5 7.5 0 1 0 15 0 a7.5 7.5 0 1 0 -15 0zM1475.85 407.21 a7.5 7.5 0 1 0 15 0 a7.5 7.5 0 1 0 -15 0zM1410.9 444.71 a7.5 7.5 0 1 0 15 0 a7.5 7.5 0 1 0 -15 0zM1475.85 -42.79 a7.5 7.5 0 1 0 15 0 a7.5 7.5 0 1 0 -15 0zM1540.81 -5.29 a7.5 7.5 0 1 0 15 0 a7.5 7.5 0 1 0 -15 0zM1540.81 69.71 a7.5 7.5 0 1 0 15 0 a7.5 7.5 0 1 0 -15 0zM1475.85 107.21 a7.5 7.5 0 1 0 15 0 a7.5 7.5 0 1 0 -15 0zM1410.9 69.71 a7.5 7.5 0 1 0 15 0 a7.5 7.5 0 1 0 -15 0zM1410.9 -5.29 a7.5 7.5 0 1 0 15 0 a7.5 7.5 0 1 0 -15 0zM1475.85 182.21 a7.5 7.5 0 1 0 15 0 a7.5 7.5 0 1 0 -15 0zM1540.81 219.71 a7.5 7.5 0 1 0 15 0 a7.5 7.5 0 1 0 -15 0zM1540.81 294.71 a7.5 7.5 0 1 0 15 0 a7.5 7.5 0 1 0 -15 0zM1410.9 219.71 a7.5 7.5 0 1 0 15 0 a7.5 7.5 0 1 0 -15 0zM1540.81 519.71 a7.5 7.5 0 1 0 15 0 a7.5 7.5 0 1 0 -15 0zM1605.76 557.21 a7.5 7.5 0 1 0 15 0 a7.5 7.5 0 1 0 -15 0zM1605.76 632.21 a7.5 7.5 0 1 0 15 0 a7.5 7.5 0 1 0 -15 0zM1540.81 669.71 a7.5 7.5 0 1 0 15 0 a7.5 7.5 0 1 0 -15 0zM1475.85 632.21 a7.5 7.5 0 1 0 15 0 a7.5 7.5 0 1 0 -15 0zM1475.85 557.21 a7.5 7.5 0 1 0 15 0 a7.5 7.5 0 1 0 -15 0z" fill="rgba(197, 200, 203, 1)"></path><path d="M30.83 -0.78L74.13 24.22L74.13 74.22L30.83 99.22L-12.47 74.22L-12.47 24.22zM30.83 149.22L74.13 174.22L74.13 224.22L30.83 249.22L-12.47 224.22L-12.47 174.22zM74.13 224.22L117.44 249.22L117.44 299.22L74.13 324.22L30.83 299.22L30.83 249.22zM30.83 449.22L74.13 474.22L74.13 524.22L30.83 549.22L-12.47 524.22L-12.47 474.22zM74.13 524.22L117.44 549.22L117.44 599.22L74.13 624.22L30.83 599.22L30.83 549.22zM117.44 -0.78L160.74 24.22L160.74 74.22L117.44 99.22L74.13 74.22L74.13 24.22zM160.74 74.22L204.04 99.22L204.04 149.22L160.74 174.22L117.44 149.22L117.44 99.22zM160.74 374.22L204.04 399.22L204.04 449.22L160.74 474.22L117.44 449.22L117.44 399.22zM117.44 449.22L160.74 474.22L160.74 524.22L117.44 549.22L74.13 524.22L74.13 474.22zM204.04 299.22L247.34 324.22L247.34 374.22L204.04 399.22L160.74 374.22L160.74 324.22zM247.34 374.22L290.64 399.22L290.64 449.22L247.34 474.22L204.04 449.22L204.04 399.22zM204.04 449.22L247.34 474.22L247.34 524.22L204.04 549.22L160.74 524.22L160.74 474.22zM247.34 524.22L290.64 549.22L290.64 599.22L247.34 624.22L204.04 599.22L204.04 549.22zM290.64 149.22L333.95 174.22L333.95 224.22L290.64 249.22L247.34 224.22L247.34 174.22zM333.95 374.22L377.25 399.22L377.25 449.22L333.95 474.22L290.64 449.22L290.64 399.22zM333.95 524.22L377.25 549.22L377.25 599.22L333.95 624.22L290.64 599.22L290.64 549.22zM377.25 -0.78L420.55 24.22L420.55 74.22L377.25 99.22L333.95 74.22L333.95 24.22zM420.55 224.22L463.86 249.22L463.86 299.22L420.55 324.22L377.25 299.22L377.25 249.22zM377.25 299.22L420.55 324.22L420.55 374.22L377.25 399.22L333.95 374.22L333.95 324.22zM463.86 -0.78L507.16 24.22L507.16 74.22L463.86 99.22L420.55 74.22L420.55 24.22zM463.86 299.22L507.16 324.22L507.16 374.22L463.86 399.22L420.55 374.22L420.55 324.22zM463.86 449.22L507.16 474.22L507.16 524.22L463.86 549.22L420.55 524.22L420.55 474.22zM507.16 524.22L550.46 549.22L550.46 599.22L507.16 624.22L463.86 599.22L463.86 549.22zM593.76 74.22L637.07 99.22L637.07 149.22L593.76 174.22L550.46 149.22L550.46 99.22zM550.46 149.22L593.76 174.22L593.76 224.22L550.46 249.22L507.16 224.22L507.16 174.22zM550.46 299.22L593.76 324.22L593.76 374.22L550.46 399.22L507.16 374.22L507.16 324.22zM593.76 374.22L637.07 399.22L637.07 449.22L593.76 474.22L550.46 449.22L550.46 399.22zM550.46 449.22L593.76 474.22L593.76 524.22L550.46 549.22L507.16 524.22L507.16 474.22zM593.76 524.22L637.07 549.22L637.07 599.22L593.76 624.22L550.46 599.22L550.46 549.22zM680.37 74.22L723.67 99.22L723.67 149.22L680.37 174.22L637.07 149.22L637.07 99.22zM680.37 224.22L723.67 249.22L723.67 299.22L680.37 324.22L637.07 299.22L637.07 249.22zM637.07 299.22L680.37 324.22L680.37 374.22L637.07 399.22L593.76 374.22L593.76 324.22zM766.97 74.22L810.28 99.22L810.28 149.22L766.97 174.22L723.67 149.22L723.67 99.22zM723.67 299.22L766.97 324.22L766.97 374.22L723.67 399.22L680.37 374.22L680.37 324.22zM810.28 149.22L853.58 174.22L853.58 224.22L810.28 249.22L766.97 224.22L766.97 174.22zM810.28 299.22L853.58 324.22L853.58 374.22L810.28 399.22L766.97 374.22L766.97 324.22zM853.58 374.22L896.88 399.22L896.88 449.22L853.58 474.22L810.28 449.22L810.28 399.22zM940.18 224.22L983.49 249.22L983.49 299.22L940.18 324.22L896.88 299.22L896.88 249.22zM896.88 299.22L940.18 324.22L940.18 374.22L896.88 399.22L853.58 374.22L853.58 324.22zM983.49 -0.78L1026.79 24.22L1026.79 74.22L983.49 99.22L940.18 74.22L940.18 24.22zM983.49 149.22L1026.79 174.22L1026.79 224.22L983.49 249.22L940.18 224.22L940.18 174.22zM1026.79 224.22L1070.09 249.22L1070.09 299.22L1026.79 324.22L983.49 299.22L983.49 249.22zM983.49 299.22L1026.79 324.22L1026.79 374.22L983.49 399.22L940.18 374.22L940.18 324.22zM983.49 449.22L1026.79 474.22L1026.79 524.22L983.49 549.22L940.18 524.22L940.18 474.22zM1026.79 524.22L1070.09 549.22L1070.09 599.22L1026.79 624.22L983.49 599.22L983.49 549.22zM1070.09 -0.78L1113.39 24.22L1113.39 74.22L1070.09 99.22L1026.79 74.22L1026.79 24.22zM1113.39 74.22L1156.69 99.22L1156.69 149.22L1113.39 174.22L1070.09 149.22L1070.09 99.22zM1113.39 224.22L1156.69 249.22L1156.69 299.22L1113.39 324.22L1070.09 299.22L1070.09 249.22zM1113.39 374.22L1156.69 399.22L1156.69 449.22L1113.39 474.22L1070.09 449.22L1070.09 399.22zM1156.69 149.22L1200 174.22L1200 224.22L1156.69 249.22L1113.39 224.22L1113.39 174.22zM1200 224.22L1243.3 249.22L1243.3 299.22L1200 324.22L1156.69 299.22L1156.69 249.22zM1156.69 299.22L1200 324.22L1200 374.22L1156.69 399.22L1113.39 374.22L1113.39 324.22zM1200 374.22L1243.3 399.22L1243.3 449.22L1200 474.22L1156.69 449.22L1156.69 399.22zM1200 524.22L1243.3 549.22L1243.3 599.22L1200 624.22L1156.69 599.22L1156.69 549.22zM1286.6 74.22L1329.9 99.22L1329.9 149.22L1286.6 174.22L1243.3 149.22L1243.3 99.22zM1243.3 449.22L1286.6 474.22L1286.6 524.22L1243.3 549.22L1200 524.22L1200 474.22zM1329.9 -0.78L1373.21 24.22L1373.21 74.22L1329.9 99.22L1286.6 74.22L1286.6 24.22zM1373.21 74.22L1416.51 99.22L1416.51 149.22L1373.21 174.22L1329.9 149.22L1329.9 99.22zM1329.9 299.22L1373.21 324.22L1373.21 374.22L1329.9 399.22L1286.6 374.22L1286.6 324.22zM1373.21 374.22L1416.51 399.22L1416.51 449.22L1373.21 474.22L1329.9 449.22L1329.9 399.22zM1329.9 449.22L1373.21 474.22L1373.21 524.22L1329.9 549.22L1286.6 524.22L1286.6 474.22zM1373.21 524.22L1416.51 549.22L1416.51 599.22L1373.21 624.22L1329.9 599.22L1329.9 549.22zM1416.51 -0.78L1459.81 24.22L1459.81 74.22L1416.51 99.22L1373.21 74.22L1373.21 24.22zM1459.81 74.22L1503.12 99.22L1503.12 149.22L1459.81 174.22L1416.51 149.22L1416.51 99.22zM1459.81 224.22L1503.12 249.22L1503.12 299.22L1459.81 324.22L1416.51 299.22L1416.51 249.22zM1416.51 299.22L1459.81 324.22L1459.81 374.22L1416.51 399.22L1373.21 374.22L1373.21 324.22zM1459.81 374.22L1503.12 399.22L1503.12 449.22L1459.81 474.22L1416.51 449.22L1416.51 399.22zM1416.51 449.22L1459.81 474.22L1459.81 524.22L1416.51 549.22L1373.21 524.22L1373.21 474.22z" stroke="rgba(201, 93, 93, 0.93)" stroke-width="2"></path></g><defs><mask id="SvgjsMask1004"><rect width="1440" height="560" fill="#ffffff"></rect></mask></defs></svg>