<svg xmlns="http://www.w3.org/2000/svg" version="1.1" xmlns:xlink="http://www.w3.org/1999/xlink" xmlns:svgjs="http://svgjs.com/svgjs" width="1440" height="560" preserveAspectRatio="none" viewBox="0 0 1440 560"><g mask="url(&quot;#SvgjsMask1006&quot;)" fill="none"><path d="M-90.35 388.17L-90.35 388.17" stroke="rgba(224, 113, 113, 1)" stroke-width="1.5"></path><path d="M-90.35 388.17L-53.1 511.67" stroke="rgba(224, 113, 113, 1)" stroke-width="1.5"></path><path d="M-90.35 388.17L71.7 376.35" stroke="rgba(224, 113, 113, 1)" stroke-width="1.5"></path><path d="M-53.1 511.67L-53.1 511.67" stroke="rgba(224, 113, 113, 1)" stroke-width="1.5"></path><path d="M-53.1 511.67L92.32 534.79" stroke="rgba(224, 113, 113, 1)" stroke-width="1.5"></path><path d="M-53.1 511.67L71.7 376.35" stroke="rgba(224, 113, 113, 1)" stroke-width="1.5"></path><path d="M-42.6 696.95L-42.6 696.95" stroke="rgba(224, 113, 113, 1)" stroke-width="1.5"></path><path d="M-42.6 696.95L43.64 676.97" stroke="rgba(224, 113, 113, 1)" stroke-width="1.5"></path><path d="M-42.6 696.95L-53.1 511.67" stroke="rgba(224, 113, 113, 1)" stroke-width="1.5"></path><path d="M-42.6 696.95L92.32 534.79" stroke="rgba(224, 113, 113, 1)" stroke-width="1.5"></path><path d="M-42.6 696.95L199.42 706.34" stroke="rgba(224, 113, 113, 1)" stroke-width="1.5"></path><path d="M71.7 376.35L71.7 376.35" stroke="rgba(224, 113, 113, 1)" stroke-width="1.5"></path><path d="M71.7 376.35L92.32 534.79" stroke="rgba(224, 113, 113, 1)" stroke-width="1.5"></path><path d="M92.32 534.79L92.32 534.79" stroke="rgba(224, 113, 113, 1)" stroke-width="1.5"></path><path d="M92.32 534.79L220.74 534.19" stroke="rgba(224, 113, 113, 1)" stroke-width="1.5"></path><path d="M92.32 534.79L43.64 676.97" stroke="rgba(224, 113, 113, 1)" stroke-width="1.5"></path><path d="M92.32 534.79L199.42 706.34" stroke="rgba(224, 113, 113, 1)" stroke-width="1.5"></path><path d="M43.64 676.97L43.64 676.97" stroke="rgba(224, 113, 113, 1)" stroke-width="1.5"></path><path d="M242.33 347.42L242.33 347.42" stroke="rgba(224, 113, 113, 1)" stroke-width="1.5"></path><path d="M242.33 347.42L71.7 376.35" stroke="rgba(224, 113, 113, 1)" stroke-width="1.5"></path><path d="M242.33 347.42L220.74 534.19" stroke="rgba(224, 113, 113, 1)" stroke-width="1.5"></path><path d="M242.33 347.42L348.3 547.91" stroke="rgba(224, 113, 113, 1)" stroke-width="1.5"></path><path d="M242.33 347.42L92.32 534.79" stroke="rgba(224, 113, 113, 1)" stroke-width="1.5"></path><path d="M242.33 347.42L545.88 378.68" stroke="rgba(224, 113, 113, 1)" stroke-width="1.5"></path><path d="M220.74 534.19L220.74 534.19" stroke="rgba(224, 113, 113, 1)" stroke-width="1.5"></path><path d="M220.74 534.19L348.3 547.91" stroke="rgba(224, 113, 113, 1)" stroke-width="1.5"></path><path d="M199.42 706.34L199.42 706.34" stroke="rgba(224, 113, 113, 1)" stroke-width="1.5"></path><path d="M199.42 706.34L43.64 676.97" stroke="rgba(224, 113, 113, 1)" stroke-width="1.5"></path><path d="M199.42 706.34L360 705.05" stroke="rgba(224, 113, 113, 1)" stroke-width="1.5"></path><path d="M199.42 706.34L220.74 534.19" stroke="rgba(224, 113, 113, 1)" stroke-width="1.5"></path><path d="M199.42 706.34L348.3 547.91" stroke="rgba(224, 113, 113, 1)" stroke-width="1.5"></path><path d="M348.3 547.91L348.3 547.91" stroke="rgba(224, 113, 113, 1)" stroke-width="1.5"></path><path d="M348.3 547.91L360 705.05" stroke="rgba(224, 113, 113, 1)" stroke-width="1.5"></path><path d="M348.3 547.91L496.92 641.44" stroke="rgba(224, 113, 113, 1)" stroke-width="1.5"></path><path d="M360 705.05L360 705.05" stroke="rgba(224, 113, 113, 1)" stroke-width="1.5"></path><path d="M360 705.05L496.92 641.44" stroke="rgba(224, 113, 113, 1)" stroke-width="1.5"></path><path d="M545.88 378.68L545.88 378.68" stroke="rgba(224, 113, 113, 1)" stroke-width="1.5"></path><path d="M545.88 378.68L648.93 350.85" stroke="rgba(224, 113, 113, 1)" stroke-width="1.5"></path><path d="M545.88 378.68L670.31 561.99" stroke="rgba(224, 113, 113, 1)" stroke-width="1.5"></path><path d="M545.88 378.68L693.4 201.95" stroke="rgba(224, 113, 113, 1)" stroke-width="1.5"></path><path d="M545.88 378.68L348.3 547.91" stroke="rgba(224, 113, 113, 1)" stroke-width="1.5"></path><path d="M545.88 378.68L496.92 641.44" stroke="rgba(224, 113, 113, 1)" stroke-width="1.5"></path><path d="M496.92 641.44L496.92 641.44" stroke="rgba(224, 113, 113, 1)" stroke-width="1.5"></path><path d="M496.92 641.44L651.02 704.76" stroke="rgba(224, 113, 113, 1)" stroke-width="1.5"></path><path d="M496.92 641.44L670.31 561.99" stroke="rgba(224, 113, 113, 1)" stroke-width="1.5"></path><path d="M496.92 641.44L220.74 534.19" stroke="rgba(224, 113, 113, 1)" stroke-width="1.5"></path><path d="M693.4 201.95L693.4 201.95" stroke="rgba(224, 113, 113, 1)" stroke-width="1.5"></path><path d="M693.4 201.95L648.93 350.85" stroke="rgba(224, 113, 113, 1)" stroke-width="1.5"></path><path d="M693.4 201.95L861.44 254.7" stroke="rgba(224, 113, 113, 1)" stroke-width="1.5"></path><path d="M693.4 201.95L824.65 365.54" stroke="rgba(224, 113, 113, 1)" stroke-width="1.5"></path><path d="M693.4 201.95L967.28 214.7" stroke="rgba(224, 113, 113, 1)" stroke-width="1.5"></path><path d="M693.4 201.95L980.48 96.59" stroke="rgba(224, 113, 113, 1)" stroke-width="1.5"></path><path d="M648.93 350.85L648.93 350.85" stroke="rgba(224, 113, 113, 1)" stroke-width="1.5"></path><path d="M648.93 350.85L824.65 365.54" stroke="rgba(224, 113, 113, 1)" stroke-width="1.5"></path><path d="M648.93 350.85L670.31 561.99" stroke="rgba(224, 113, 113, 1)" stroke-width="1.5"></path><path d="M670.31 561.99L670.31 561.99" stroke="rgba(224, 113, 113, 1)" stroke-width="1.5"></path><path d="M670.31 561.99L651.02 704.76" stroke="rgba(224, 113, 113, 1)" stroke-width="1.5"></path><path d="M670.31 561.99L833.16 547.94" stroke="rgba(224, 113, 113, 1)" stroke-width="1.5"></path><path d="M651.02 704.76L651.02 704.76" stroke="rgba(224, 113, 113, 1)" stroke-width="1.5"></path><path d="M651.02 704.76L803.53 683.46" stroke="rgba(224, 113, 113, 1)" stroke-width="1.5"></path><path d="M861.44 254.7L861.44 254.7" stroke="rgba(224, 113, 113, 1)" stroke-width="1.5"></path><path d="M861.44 254.7L967.28 214.7" stroke="rgba(224, 113, 113, 1)" stroke-width="1.5"></path><path d="M861.44 254.7L824.65 365.54" stroke="rgba(224, 113, 113, 1)" stroke-width="1.5"></path><path d="M861.44 254.7L967.82 384.78" stroke="rgba(224, 113, 113, 1)" stroke-width="1.5"></path><path d="M861.44 254.7L980.48 96.59" stroke="rgba(224, 113, 113, 1)" stroke-width="1.5"></path><path d="M824.65 365.54L824.65 365.54" stroke="rgba(224, 113, 113, 1)" stroke-width="1.5"></path><path d="M824.65 365.54L967.82 384.78" stroke="rgba(224, 113, 113, 1)" stroke-width="1.5"></path><path d="M833.16 547.94L833.16 547.94" stroke="rgba(224, 113, 113, 1)" stroke-width="1.5"></path><path d="M833.16 547.94L803.53 683.46" stroke="rgba(224, 113, 113, 1)" stroke-width="1.5"></path><path d="M833.16 547.94L939.16 651.94" stroke="rgba(224, 113, 113, 1)" stroke-width="1.5"></path><path d="M803.53 683.46L803.53 683.46" stroke="rgba(224, 113, 113, 1)" stroke-width="1.5"></path><path d="M803.53 683.46L939.16 651.94" stroke="rgba(224, 113, 113, 1)" stroke-width="1.5"></path><path d="M803.53 683.46L670.31 561.99" stroke="rgba(224, 113, 113, 1)" stroke-width="1.5"></path><path d="M803.53 683.46L1001.72 505.36" stroke="rgba(224, 113, 113, 1)" stroke-width="1.5"></path><path d="M958.69 -53.98L958.69 -53.98" stroke="rgba(224, 113, 113, 1)" stroke-width="1.5"></path><path d="M958.69 -53.98L980.48 96.59" stroke="rgba(224, 113, 113, 1)" stroke-width="1.5"></path><path d="M958.69 -53.98L1131.88 -43.42" stroke="rgba(224, 113, 113, 1)" stroke-width="1.5"></path><path d="M958.69 -53.98L1125.82 54.83" stroke="rgba(224, 113, 113, 1)" stroke-width="1.5"></path><path d="M958.69 -53.98L967.28 214.7" stroke="rgba(224, 113, 113, 1)" stroke-width="1.5"></path><path d="M980.48 96.59L980.48 96.59" stroke="rgba(224, 113, 113, 1)" stroke-width="1.5"></path><path d="M980.48 96.59L967.28 214.7" stroke="rgba(224, 113, 113, 1)" stroke-width="1.5"></path><path d="M980.48 96.59L1125.82 54.83" stroke="rgba(224, 113, 113, 1)" stroke-width="1.5"></path><path d="M980.48 96.59L1123.11 226.54" stroke="rgba(224, 113, 113, 1)" stroke-width="1.5"></path><path d="M967.28 214.7L967.28 214.7" stroke="rgba(224, 113, 113, 1)" stroke-width="1.5"></path><path d="M967.28 214.7L1123.11 226.54" stroke="rgba(224, 113, 113, 1)" stroke-width="1.5"></path><path d="M967.82 384.78L967.82 384.78" stroke="rgba(224, 113, 113, 1)" stroke-width="1.5"></path><path d="M967.82 384.78L1001.72 505.36" stroke="rgba(224, 113, 113, 1)" stroke-width="1.5"></path><path d="M1001.72 505.36L1001.72 505.36" stroke="rgba(224, 113, 113, 1)" stroke-width="1.5"></path><path d="M1001.72 505.36L1154.83 540.21" stroke="rgba(224, 113, 113, 1)" stroke-width="1.5"></path><path d="M939.16 651.94L939.16 651.94" stroke="rgba(224, 113, 113, 1)" stroke-width="1.5"></path><path d="M939.16 651.94L1001.72 505.36" stroke="rgba(224, 113, 113, 1)" stroke-width="1.5"></path><path d="M939.16 651.94L1154.83 540.21" stroke="rgba(224, 113, 113, 1)" stroke-width="1.5"></path><path d="M939.16 651.94L967.82 384.78" stroke="rgba(224, 113, 113, 1)" stroke-width="1.5"></path><path d="M939.16 651.94L670.31 561.99" stroke="rgba(224, 113, 113, 1)" stroke-width="1.5"></path><path d="M1131.88 -43.42L1131.88 -43.42" stroke="rgba(224, 113, 113, 1)" stroke-width="1.5"></path><path d="M1131.88 -43.42L1125.82 54.83" stroke="rgba(224, 113, 113, 1)" stroke-width="1.5"></path><path d="M1131.88 -43.42L1281.86 -72.72" stroke="rgba(224, 113, 113, 1)" stroke-width="1.5"></path><path d="M1131.88 -43.42L1300.53 51.02" stroke="rgba(224, 113, 113, 1)" stroke-width="1.5"></path><path d="M1131.88 -43.42L980.48 96.59" stroke="rgba(224, 113, 113, 1)" stroke-width="1.5"></path><path d="M1125.82 54.83L1125.82 54.83" stroke="rgba(224, 113, 113, 1)" stroke-width="1.5"></path><path d="M1125.82 54.83L1123.11 226.54" stroke="rgba(224, 113, 113, 1)" stroke-width="1.5"></path><path d="M1125.82 54.83L1300.53 51.02" stroke="rgba(224, 113, 113, 1)" stroke-width="1.5"></path><path d="M1125.82 54.83L1281.86 -72.72" stroke="rgba(224, 113, 113, 1)" stroke-width="1.5"></path><path d="M1123.11 226.54L1123.11 226.54" stroke="rgba(224, 113, 113, 1)" stroke-width="1.5"></path><path d="M1123.11 226.54L1152.74 354.23" stroke="rgba(224, 113, 113, 1)" stroke-width="1.5"></path><path d="M1123.11 226.54L1272.48 222.93" stroke="rgba(224, 113, 113, 1)" stroke-width="1.5"></path><path d="M1152.74 354.23L1152.74 354.23" stroke="rgba(224, 113, 113, 1)" stroke-width="1.5"></path><path d="M1152.74 354.23L1293.92 351.45" stroke="rgba(224, 113, 113, 1)" stroke-width="1.5"></path><path d="M1154.83 540.21L1154.83 540.21" stroke="rgba(224, 113, 113, 1)" stroke-width="1.5"></path><path d="M1154.83 540.21L1260.56 515.14" stroke="rgba(224, 113, 113, 1)" stroke-width="1.5"></path><path d="M1154.83 540.21L1270.94 682.64" stroke="rgba(224, 113, 113, 1)" stroke-width="1.5"></path><path d="M1154.83 540.21L1152.74 354.23" stroke="rgba(224, 113, 113, 1)" stroke-width="1.5"></path><path d="M1281.86 -72.72L1281.86 -72.72" stroke="rgba(224, 113, 113, 1)" stroke-width="1.5"></path><path d="M1281.86 -72.72L1300.53 51.02" stroke="rgba(224, 113, 113, 1)" stroke-width="1.5"></path><path d="M1281.86 -72.72L1415.81 -99.57" stroke="rgba(224, 113, 113, 1)" stroke-width="1.5"></path><path d="M1300.53 51.02L1300.53 51.02" stroke="rgba(224, 113, 113, 1)" stroke-width="1.5"></path><path d="M1300.53 51.02L1419.36 93.03" stroke="rgba(224, 113, 113, 1)" stroke-width="1.5"></path><path d="M1300.53 51.02L1272.48 222.93" stroke="rgba(224, 113, 113, 1)" stroke-width="1.5"></path><path d="M1300.53 51.02L1415.81 -99.57" stroke="rgba(224, 113, 113, 1)" stroke-width="1.5"></path><path d="M1272.48 222.93L1272.48 222.93" stroke="rgba(224, 113, 113, 1)" stroke-width="1.5"></path><path d="M1272.48 222.93L1293.92 351.45" stroke="rgba(224, 113, 113, 1)" stroke-width="1.5"></path><path d="M1272.48 222.93L1152.74 354.23" stroke="rgba(224, 113, 113, 1)" stroke-width="1.5"></path><path d="M1272.48 222.93L1447.19 257.67" stroke="rgba(224, 113, 113, 1)" stroke-width="1.5"></path><path d="M1272.48 222.93L1419.36 93.03" stroke="rgba(224, 113, 113, 1)" stroke-width="1.5"></path><path d="M1293.92 351.45L1293.92 351.45" stroke="rgba(224, 113, 113, 1)" stroke-width="1.5"></path><path d="M1260.56 515.14L1260.56 515.14" stroke="rgba(224, 113, 113, 1)" stroke-width="1.5"></path><path d="M1260.56 515.14L1393.44 503.5" stroke="rgba(224, 113, 113, 1)" stroke-width="1.5"></path><path d="M1260.56 515.14L1293.92 351.45" stroke="rgba(224, 113, 113, 1)" stroke-width="1.5"></path><path d="M1260.56 515.14L1270.94 682.64" stroke="rgba(224, 113, 113, 1)" stroke-width="1.5"></path><path d="M1260.56 515.14L1152.74 354.23" stroke="rgba(224, 113, 113, 1)" stroke-width="1.5"></path><path d="M1270.94 682.64L1270.94 682.64" stroke="rgba(224, 113, 113, 1)" stroke-width="1.5"></path><path d="M1270.94 682.64L1430.25 651.73" stroke="rgba(224, 113, 113, 1)" stroke-width="1.5"></path><path d="M1415.81 -99.57L1415.81 -99.57" stroke="rgba(224, 113, 113, 1)" stroke-width="1.5"></path><path d="M1415.81 -99.57L1541.26 -40.56" stroke="rgba(224, 113, 113, 1)" stroke-width="1.5"></path><path d="M1415.81 -99.57L1419.36 93.03" stroke="rgba(224, 113, 113, 1)" stroke-width="1.5"></path><path d="M1415.81 -99.57L1607.6 97.21" stroke="rgba(224, 113, 113, 1)" stroke-width="1.5"></path><path d="M1415.81 -99.57L1131.88 -43.42" stroke="rgba(224, 113, 113, 1)" stroke-width="1.5"></path><path d="M1419.36 93.03L1419.36 93.03" stroke="rgba(224, 113, 113, 1)" stroke-width="1.5"></path><path d="M1419.36 93.03L1447.19 257.67" stroke="rgba(224, 113, 113, 1)" stroke-width="1.5"></path><path d="M1419.36 93.03L1541.26 -40.56" stroke="rgba(224, 113, 113, 1)" stroke-width="1.5"></path><path d="M1419.36 93.03L1607.6 97.21" stroke="rgba(224, 113, 113, 1)" stroke-width="1.5"></path><path d="M1447.19 257.67L1447.19 257.67" stroke="rgba(224, 113, 113, 1)" stroke-width="1.5"></path><path d="M1447.19 257.67L1457.03 370.31" stroke="rgba(224, 113, 113, 1)" stroke-width="1.5"></path><path d="M1447.19 257.67L1600.27 258.55" stroke="rgba(224, 113, 113, 1)" stroke-width="1.5"></path><path d="M1457.03 370.31L1457.03 370.31" stroke="rgba(224, 113, 113, 1)" stroke-width="1.5"></path><path d="M1457.03 370.31L1597.35 357.32" stroke="rgba(224, 113, 113, 1)" stroke-width="1.5"></path><path d="M1457.03 370.31L1393.44 503.5" stroke="rgba(224, 113, 113, 1)" stroke-width="1.5"></path><path d="M1457.03 370.31L1293.92 351.45" stroke="rgba(224, 113, 113, 1)" stroke-width="1.5"></path><path d="M1457.03 370.31L1600.27 258.55" stroke="rgba(224, 113, 113, 1)" stroke-width="1.5"></path><path d="M1393.44 503.5L1393.44 503.5" stroke="rgba(224, 113, 113, 1)" stroke-width="1.5"></path><path d="M1393.44 503.5L1430.25 651.73" stroke="rgba(224, 113, 113, 1)" stroke-width="1.5"></path><path d="M1430.25 651.73L1430.25 651.73" stroke="rgba(224, 113, 113, 1)" stroke-width="1.5"></path><path d="M1430.25 651.73L1593.37 666.67" stroke="rgba(224, 113, 113, 1)" stroke-width="1.5"></path><path d="M1430.25 651.73L1573.66 534.46" stroke="rgba(224, 113, 113, 1)" stroke-width="1.5"></path><path d="M1541.26 -40.56L1541.26 -40.56" stroke="rgba(224, 113, 113, 1)" stroke-width="1.5"></path><path d="M1541.26 -40.56L1607.6 97.21" stroke="rgba(224, 113, 113, 1)" stroke-width="1.5"></path><path d="M1541.26 -40.56L1300.53 51.02" stroke="rgba(224, 113, 113, 1)" stroke-width="1.5"></path><path d="M1541.26 -40.56L1281.86 -72.72" stroke="rgba(224, 113, 113, 1)" stroke-width="1.5"></path><path d="M1541.26 -40.56L1600.27 258.55" stroke="rgba(224, 113, 113, 1)" stroke-width="1.5"></path><path d="M1607.6 97.21L1607.6 97.21" stroke="rgba(224, 113, 113, 1)" stroke-width="1.5"></path><path d="M1607.6 97.21L1600.27 258.55" stroke="rgba(224, 113, 113, 1)" stroke-width="1.5"></path><path d="M1607.6 97.21L1447.19 257.67" stroke="rgba(224, 113, 113, 1)" stroke-width="1.5"></path><path d="M1607.6 97.21L1597.35 357.32" stroke="rgba(224, 113, 113, 1)" stroke-width="1.5"></path><path d="M1600.27 258.55L1600.27 258.55" stroke="rgba(224, 113, 113, 1)" stroke-width="1.5"></path><path d="M1600.27 258.55L1597.35 357.32" stroke="rgba(224, 113, 113, 1)" stroke-width="1.5"></path><path d="M1597.35 357.32L1597.35 357.32" stroke="rgba(224, 113, 113, 1)" stroke-width="1.5"></path><path d="M1597.35 357.32L1573.66 534.46" stroke="rgba(224, 113, 113, 1)" stroke-width="1.5"></path><path d="M1597.35 357.32L1447.19 257.67" stroke="rgba(224, 113, 113, 1)" stroke-width="1.5"></path><path d="M1573.66 534.46L1573.66 534.46" stroke="rgba(224, 113, 113, 1)" stroke-width="1.5"></path><path d="M1573.66 534.46L1593.37 666.67" stroke="rgba(224, 113, 113, 1)" stroke-width="1.5"></path><path d="M1593.37 666.67L1593.37 666.67" stroke="rgba(224, 113, 113, 1)" stroke-width="1.5"></path><path d="M1593.37 666.67L1393.44 503.5" stroke="rgba(224, 113, 113, 1)" stroke-width="1.5"></path><path d="M1593.37 666.67L1597.35 357.32" stroke="rgba(224, 113, 113, 1)" stroke-width="1.5"></path><circle r="5" cx="-90.35" cy="388.17" fill="rgba(224, 113, 113, 1)"></circle><circle r="5" cx="-53.1" cy="511.67" fill="rgba(224, 113, 113, 1)"></circle><circle r="5" cx="-42.6" cy="696.95" fill="rgba(224, 113, 113, 1)"></circle><circle r="5" cx="71.7" cy="376.35" fill="rgba(224, 113, 113, 1)"></circle><circle r="5" cx="92.32" cy="534.79" fill="rgba(224, 113, 113, 1)"></circle><circle r="5" cx="43.64" cy="676.97" fill="rgba(224, 113, 113, 1)"></circle><circle r="5" cx="242.33" cy="347.42" fill="rgba(224, 113, 113, 1)"></circle><circle r="5" cx="220.74" cy="534.19" fill="rgba(224, 113, 113, 1)"></circle><circle r="5" cx="199.42" cy="706.34" fill="rgba(224, 113, 113, 1)"></circle><circle r="5" cx="348.3" cy="547.91" fill="rgba(224, 113, 113, 1)"></circle><circle r="5" cx="360" cy="705.05" fill="rgba(224, 113, 113, 1)"></circle><circle r="5" cx="545.88" cy="378.68" fill="rgba(224, 113, 113, 1)"></circle><circle r="5" cx="496.92" cy="641.44" fill="rgba(224, 113, 113, 1)"></circle><circle r="5" cx="693.4" cy="201.95" fill="rgba(224, 113, 113, 1)"></circle><circle r="5" cx="648.93" cy="350.85" fill="rgba(224, 113, 113, 1)"></circle><circle r="5" cx="670.31" cy="561.99" fill="rgba(224, 113, 113, 1)"></circle><circle r="5" cx="651.02" cy="704.76" fill="rgba(224, 113, 113, 1)"></circle><circle r="5" cx="861.44" cy="254.7" fill="rgba(224, 113, 113, 1)"></circle><circle r="5" cx="824.65" cy="365.54" fill="rgba(224, 113, 113, 1)"></circle><circle r="5" cx="833.16" cy="547.94" fill="rgba(224, 113, 113, 1)"></circle><circle r="5" cx="803.53" cy="683.46" fill="rgba(224, 113, 113, 1)"></circle><circle r="5" cx="958.69" cy="-53.98" fill="rgba(224, 113, 113, 1)"></circle><circle r="5" cx="980.48" cy="96.59" fill="rgba(224, 113, 113, 1)"></circle><circle r="5" cx="967.28" cy="214.7" fill="rgba(224, 113, 113, 1)"></circle><circle r="5" cx="967.82" cy="384.78" fill="rgba(224, 113, 113, 1)"></circle><circle r="5" cx="1001.72" cy="505.36" fill="rgba(224, 113, 113, 1)"></circle><circle r="5" cx="939.16" cy="651.94" fill="rgba(224, 113, 113, 1)"></circle><circle r="5" cx="1131.88" cy="-43.42" fill="rgba(224, 113, 113, 1)"></circle><circle r="5" cx="1125.82" cy="54.83" fill="rgba(224, 113, 113, 1)"></circle><circle r="5" cx="1123.11" cy="226.54" fill="rgba(224, 113, 113, 1)"></circle><circle r="5" cx="1152.74" cy="354.23" fill="rgba(224, 113, 113, 1)"></circle><circle r="5" cx="1154.83" cy="540.21" fill="rgba(224, 113, 113, 1)"></circle><circle r="5" cx="1281.86" cy="-72.72" fill="rgba(224, 113, 113, 1)"></circle><circle r="5" cx="1300.53" cy="51.02" fill="rgba(224, 113, 113, 1)"></circle><circle r="5" cx="1272.48" cy="222.93" fill="rgba(224, 113, 113, 1)"></circle><circle r="5" cx="1293.92" cy="351.45" fill="rgba(224, 113, 113, 1)"></circle><circle r="5" cx="1260.56" cy="515.14" fill="rgba(224, 113, 113, 1)"></circle><circle r="5" cx="1270.94" cy="682.64" fill="rgba(224, 113, 113, 1)"></circle><circle r="5" cx="1415.81" cy="-99.57" fill="rgba(224, 113, 113, 1)"></circle><circle r="5" cx="1419.36" cy="93.03" fill="rgba(224, 113, 113, 1)"></circle><circle r="5" cx="1447.19" cy="257.67" fill="rgba(224, 113, 113, 1)"></circle><circle r="5" cx="1457.03" cy="370.31" fill="rgba(224, 113, 113, 1)"></circle><circle r="5" cx="1393.44" cy="503.5" fill="rgba(224, 113, 113, 1)"></circle><circle r="5" cx="1430.25" cy="651.73" fill="rgba(224, 113, 113, 1)"></circle><circle r="5" cx="1541.26" cy="-40.56" fill="rgba(224, 113, 113, 1)"></circle><circle r="5" cx="1607.6" cy="97.21" fill="rgba(224, 113, 113, 1)"></circle><circle r="5" cx="1600.27" cy="258.55" fill="rgba(224, 113, 113, 1)"></circle><circle r="5" cx="1597.35" cy="357.32" fill="rgba(224, 113, 113, 1)"></circle><circle r="5" cx="1573.66" cy="534.46" fill="rgba(224, 113, 113, 1)"></circle><circle r="5" cx="1593.37" cy="666.67" fill="rgba(224, 113, 113, 1)"></circle><path d="M387.64 669.7L387.64 669.7" stroke="hsl(0, 34.9%, 97.9%)" stroke-width="1.5"></path><path d="M387.64 669.7L251.18 678.16" stroke="hsl(0, 34.9%, 97.9%)" stroke-width="1.5"></path><path d="M387.64 669.7L354.29 511.13" stroke="hsl(0, 34.9%, 97.9%)" stroke-width="1.5"></path><path d="M558.42 695.08L558.42 695.08" stroke="hsl(0, 34.9%, 97.9%)" stroke-width="1.5"></path><path d="M558.42 695.08L387.64 669.7" stroke="hsl(0, 34.9%, 97.9%)" stroke-width="1.5"></path><path d="M558.42 695.08L671.99 515.58" stroke="hsl(0, 34.9%, 97.9%)" stroke-width="1.5"></path><path d="M558.42 695.08L354.29 511.13" stroke="hsl(0, 34.9%, 97.9%)" stroke-width="1.5"></path><path d="M558.42 695.08L845.33 657.32" stroke="hsl(0, 34.9%, 97.9%)" stroke-width="1.5"></path><path d="M558.42 695.08L251.18 678.16" stroke="hsl(0, 34.9%, 97.9%)" stroke-width="1.5"></path><path d="M558.42 695.08L861.63 505.38" stroke="hsl(0, 34.9%, 97.9%)" stroke-width="1.5"></path><path d="M845.33 657.32L845.33 657.32" stroke="hsl(0, 34.9%, 97.9%)" stroke-width="1.5"></path><path d="M845.33 657.32L941.72 702.47" stroke="hsl(0, 34.9%, 97.9%)" stroke-width="1.5"></path><path d="M845.33 657.32L861.63 505.38" stroke="hsl(0, 34.9%, 97.9%)" stroke-width="1.5"></path><path d="M845.33 657.32L1012.47 560.19" stroke="hsl(0, 34.9%, 97.9%)" stroke-width="1.5"></path><path d="M845.33 657.32L671.99 515.58" stroke="hsl(0, 34.9%, 97.9%)" stroke-width="1.5"></path><path d="M1126.78 551.85L1126.78 551.85" stroke="hsl(0, 34.9%, 97.9%)" stroke-width="1.5"></path><path d="M1126.78 551.85L1122.84 647.26" stroke="hsl(0, 34.9%, 97.9%)" stroke-width="1.5"></path><path d="M1241.03 642.22L1241.03 642.22" stroke="hsl(0, 34.9%, 97.9%)" stroke-width="1.5"></path><path d="M1241.03 642.22L1122.84 647.26" stroke="hsl(0, 34.9%, 97.9%)" stroke-width="1.5"></path><path d="M1241.03 642.22L1126.78 551.85" stroke="hsl(0, 34.9%, 97.9%)" stroke-width="1.5"></path><path d="M1241.03 642.22L1427.24 706.76" stroke="hsl(0, 34.9%, 97.9%)" stroke-width="1.5"></path><path d="M1241.03 642.22L1450.72 521.77" stroke="hsl(0, 34.9%, 97.9%)" stroke-width="1.5"></path><path d="M1604.15 -97.49L1604.15 -97.49" stroke="hsl(0, 34.9%, 97.9%)" stroke-width="1.5"></path><path d="M1604.15 -97.49L1569.57 57.54" stroke="hsl(0, 34.9%, 97.9%)" stroke-width="1.5"></path><path d="M1604.15 -97.49L1429.56 -44.22" stroke="hsl(0, 34.9%, 97.9%)" stroke-width="1.5"></path><path d="M1604.15 -97.49L1451.45 89.54" stroke="hsl(0, 34.9%, 97.9%)" stroke-width="1.5"></path><path d="M1604.15 -97.49L1537.64 215.7" stroke="hsl(0, 34.9%, 97.9%)" stroke-width="1.5"></path><path d="M1604.15 -97.49L1457.06 201.91" stroke="hsl(0, 34.9%, 97.9%)" stroke-width="1.5"></path><path d="M1604.15 -97.49L1303.91 71.63" stroke="hsl(0, 34.9%, 97.9%)" stroke-width="1.5"></path><path d="M1570.31 685.7L1570.31 685.7" stroke="hsl(0, 34.9%, 97.9%)" stroke-width="1.5"></path><path d="M1570.31 685.7L1551.91 547.77" stroke="hsl(0, 34.9%, 97.9%)" stroke-width="1.5"></path><path d="M1570.31 685.7L1427.24 706.76" stroke="hsl(0, 34.9%, 97.9%)" stroke-width="1.5"></path><path d="M1570.31 685.7L1450.72 521.77" stroke="hsl(0, 34.9%, 97.9%)" stroke-width="1.5"></path><path d="M1570.31 685.7L1561.23 411.89" stroke="hsl(0, 34.9%, 97.9%)" stroke-width="1.5"></path><path d="M1570.31 685.7L1241.03 642.22" stroke="hsl(0, 34.9%, 97.9%)" stroke-width="1.5"></path><path d="M1570.31 685.7L1415.71 365.22" stroke="hsl(0, 34.9%, 97.9%)" stroke-width="1.5"></path><path d="M-52.04 533.11L-52.04 533.11" stroke="hsl(0, 34.9%, 97.9%)" stroke-width="1.5"></path><path d="M-52.04 533.11L77.67 509.85" stroke="hsl(0, 34.9%, 97.9%)" stroke-width="1.5"></path><path d="M-52.04 533.11L-69.07 667.26" stroke="hsl(0, 34.9%, 97.9%)" stroke-width="1.5"></path><path d="M-52.04 533.11L201.43 501.52" stroke="hsl(0, 34.9%, 97.9%)" stroke-width="1.5"></path><path d="M-69.07 667.26L-69.07 667.26" stroke="hsl(0, 34.9%, 97.9%)" stroke-width="1.5"></path><path d="M-69.07 667.26L77.67 509.85" stroke="hsl(0, 34.9%, 97.9%)" stroke-width="1.5"></path><path d="M-69.07 667.26L201.43 501.52" stroke="hsl(0, 34.9%, 97.9%)" stroke-width="1.5"></path><path d="M-69.07 667.26L251.18 678.16" stroke="hsl(0, 34.9%, 97.9%)" stroke-width="1.5"></path><path d="M77.67 509.85L77.67 509.85" stroke="hsl(0, 34.9%, 97.9%)" stroke-width="1.5"></path><path d="M77.67 509.85L201.43 501.52" stroke="hsl(0, 34.9%, 97.9%)" stroke-width="1.5"></path><path d="M77.67 509.85L251.18 678.16" stroke="hsl(0, 34.9%, 97.9%)" stroke-width="1.5"></path><path d="M201.43 501.52L201.43 501.52" stroke="hsl(0, 34.9%, 97.9%)" stroke-width="1.5"></path><path d="M201.43 501.52L354.29 511.13" stroke="hsl(0, 34.9%, 97.9%)" stroke-width="1.5"></path><path d="M201.43 501.52L251.18 678.16" stroke="hsl(0, 34.9%, 97.9%)" stroke-width="1.5"></path><path d="M201.43 501.52L387.64 669.7" stroke="hsl(0, 34.9%, 97.9%)" stroke-width="1.5"></path><path d="M251.18 678.16L251.18 678.16" stroke="hsl(0, 34.9%, 97.9%)" stroke-width="1.5"></path><path d="M251.18 678.16L354.29 511.13" stroke="hsl(0, 34.9%, 97.9%)" stroke-width="1.5"></path><path d="M354.29 511.13L354.29 511.13" stroke="hsl(0, 34.9%, 97.9%)" stroke-width="1.5"></path><path d="M671.99 515.58L671.99 515.58" stroke="hsl(0, 34.9%, 97.9%)" stroke-width="1.5"></path><path d="M671.99 515.58L796.44 400.99" stroke="hsl(0, 34.9%, 97.9%)" stroke-width="1.5"></path><path d="M671.99 515.58L861.63 505.38" stroke="hsl(0, 34.9%, 97.9%)" stroke-width="1.5"></path><path d="M671.99 515.58L354.29 511.13" stroke="hsl(0, 34.9%, 97.9%)" stroke-width="1.5"></path><path d="M671.99 515.58L387.64 669.7" stroke="hsl(0, 34.9%, 97.9%)" stroke-width="1.5"></path><path d="M796.44 400.99L796.44 400.99" stroke="hsl(0, 34.9%, 97.9%)" stroke-width="1.5"></path><path d="M796.44 400.99L861.63 505.38" stroke="hsl(0, 34.9%, 97.9%)" stroke-width="1.5"></path><path d="M796.44 400.99L989.03 358.91" stroke="hsl(0, 34.9%, 97.9%)" stroke-width="1.5"></path><path d="M796.44 400.99L845.33 657.32" stroke="hsl(0, 34.9%, 97.9%)" stroke-width="1.5"></path><path d="M796.44 400.99L1012.47 560.19" stroke="hsl(0, 34.9%, 97.9%)" stroke-width="1.5"></path><path d="M861.63 505.38L861.63 505.38" stroke="hsl(0, 34.9%, 97.9%)" stroke-width="1.5"></path><path d="M989.03 358.91L989.03 358.91" stroke="hsl(0, 34.9%, 97.9%)" stroke-width="1.5"></path><path d="M989.03 358.91L1125.91 394.02" stroke="hsl(0, 34.9%, 97.9%)" stroke-width="1.5"></path><path d="M989.03 358.91L861.63 505.38" stroke="hsl(0, 34.9%, 97.9%)" stroke-width="1.5"></path><path d="M989.03 358.91L1012.47 560.19" stroke="hsl(0, 34.9%, 97.9%)" stroke-width="1.5"></path><path d="M989.03 358.91L1132.91 212.78" stroke="hsl(0, 34.9%, 97.9%)" stroke-width="1.5"></path><path d="M989.03 358.91L1126.78 551.85" stroke="hsl(0, 34.9%, 97.9%)" stroke-width="1.5"></path><path d="M1012.47 560.19L1012.47 560.19" stroke="hsl(0, 34.9%, 97.9%)" stroke-width="1.5"></path><path d="M1012.47 560.19L1126.78 551.85" stroke="hsl(0, 34.9%, 97.9%)" stroke-width="1.5"></path><path d="M1012.47 560.19L1122.84 647.26" stroke="hsl(0, 34.9%, 97.9%)" stroke-width="1.5"></path><path d="M941.72 702.47L941.72 702.47" stroke="hsl(0, 34.9%, 97.9%)" stroke-width="1.5"></path><path d="M941.72 702.47L1012.47 560.19" stroke="hsl(0, 34.9%, 97.9%)" stroke-width="1.5"></path><path d="M941.72 702.47L1122.84 647.26" stroke="hsl(0, 34.9%, 97.9%)" stroke-width="1.5"></path><path d="M941.72 702.47L861.63 505.38" stroke="hsl(0, 34.9%, 97.9%)" stroke-width="1.5"></path><path d="M941.72 702.47L1126.78 551.85" stroke="hsl(0, 34.9%, 97.9%)" stroke-width="1.5"></path><path d="M1160.61 100.17L1160.61 100.17" stroke="hsl(0, 34.9%, 97.9%)" stroke-width="1.5"></path><path d="M1160.61 100.17L1132.91 212.78" stroke="hsl(0, 34.9%, 97.9%)" stroke-width="1.5"></path><path d="M1160.61 100.17L1303.91 71.63" stroke="hsl(0, 34.9%, 97.9%)" stroke-width="1.5"></path><path d="M1160.61 100.17L1309.7 202.06" stroke="hsl(0, 34.9%, 97.9%)" stroke-width="1.5"></path><path d="M1160.61 100.17L1248.69 -81.38" stroke="hsl(0, 34.9%, 97.9%)" stroke-width="1.5"></path><path d="M1160.61 100.17L1451.45 89.54" stroke="hsl(0, 34.9%, 97.9%)" stroke-width="1.5"></path><path d="M1132.91 212.78L1132.91 212.78" stroke="hsl(0, 34.9%, 97.9%)" stroke-width="1.5"></path><path d="M1132.91 212.78L1309.7 202.06" stroke="hsl(0, 34.9%, 97.9%)" stroke-width="1.5"></path><path d="M1132.91 212.78L1125.91 394.02" stroke="hsl(0, 34.9%, 97.9%)" stroke-width="1.5"></path><path d="M1125.91 394.02L1125.91 394.02" stroke="hsl(0, 34.9%, 97.9%)" stroke-width="1.5"></path><path d="M1125.91 394.02L1126.78 551.85" stroke="hsl(0, 34.9%, 97.9%)" stroke-width="1.5"></path><path d="M1122.84 647.26L1122.84 647.26" stroke="hsl(0, 34.9%, 97.9%)" stroke-width="1.5"></path><path d="M1122.84 647.26L1125.91 394.02" stroke="hsl(0, 34.9%, 97.9%)" stroke-width="1.5"></path><path d="M1122.84 647.26L845.33 657.32" stroke="hsl(0, 34.9%, 97.9%)" stroke-width="1.5"></path><path d="M1248.69 -81.38L1248.69 -81.38" stroke="hsl(0, 34.9%, 97.9%)" stroke-width="1.5"></path><path d="M1248.69 -81.38L1303.91 71.63" stroke="hsl(0, 34.9%, 97.9%)" stroke-width="1.5"></path><path d="M1248.69 -81.38L1429.56 -44.22" stroke="hsl(0, 34.9%, 97.9%)" stroke-width="1.5"></path><path d="M1248.69 -81.38L1451.45 89.54" stroke="hsl(0, 34.9%, 97.9%)" stroke-width="1.5"></path><path d="M1248.69 -81.38L1309.7 202.06" stroke="hsl(0, 34.9%, 97.9%)" stroke-width="1.5"></path><path d="M1303.91 71.63L1303.91 71.63" stroke="hsl(0, 34.9%, 97.9%)" stroke-width="1.5"></path><path d="M1303.91 71.63L1309.7 202.06" stroke="hsl(0, 34.9%, 97.9%)" stroke-width="1.5"></path><path d="M1309.7 202.06L1309.7 202.06" stroke="hsl(0, 34.9%, 97.9%)" stroke-width="1.5"></path><path d="M1309.7 202.06L1457.06 201.91" stroke="hsl(0, 34.9%, 97.9%)" stroke-width="1.5"></path><path d="M1308.81 387.23L1308.81 387.23" stroke="hsl(0, 34.9%, 97.9%)" stroke-width="1.5"></path><path d="M1308.81 387.23L1415.71 365.22" stroke="hsl(0, 34.9%, 97.9%)" stroke-width="1.5"></path><path d="M1429.56 -44.22L1429.56 -44.22" stroke="hsl(0, 34.9%, 97.9%)" stroke-width="1.5"></path><path d="M1429.56 -44.22L1451.45 89.54" stroke="hsl(0, 34.9%, 97.9%)" stroke-width="1.5"></path><path d="M1429.56 -44.22L1303.91 71.63" stroke="hsl(0, 34.9%, 97.9%)" stroke-width="1.5"></path><path d="M1429.56 -44.22L1569.57 57.54" stroke="hsl(0, 34.9%, 97.9%)" stroke-width="1.5"></path><path d="M1451.45 89.54L1451.45 89.54" stroke="hsl(0, 34.9%, 97.9%)" stroke-width="1.5"></path><path d="M1451.45 89.54L1457.06 201.91" stroke="hsl(0, 34.9%, 97.9%)" stroke-width="1.5"></path><path d="M1457.06 201.91L1457.06 201.91" stroke="hsl(0, 34.9%, 97.9%)" stroke-width="1.5"></path><path d="M1457.06 201.91L1537.64 215.7" stroke="hsl(0, 34.9%, 97.9%)" stroke-width="1.5"></path><path d="M1415.71 365.22L1415.71 365.22" stroke="hsl(0, 34.9%, 97.9%)" stroke-width="1.5"></path><path d="M1415.71 365.22L1561.23 411.89" stroke="hsl(0, 34.9%, 97.9%)" stroke-width="1.5"></path><path d="M1450.72 521.77L1450.72 521.77" stroke="hsl(0, 34.9%, 97.9%)" stroke-width="1.5"></path><path d="M1450.72 521.77L1551.91 547.77" stroke="hsl(0, 34.9%, 97.9%)" stroke-width="1.5"></path><path d="M1450.72 521.77L1561.23 411.89" stroke="hsl(0, 34.9%, 97.9%)" stroke-width="1.5"></path><path d="M1450.72 521.77L1415.71 365.22" stroke="hsl(0, 34.9%, 97.9%)" stroke-width="1.5"></path><path d="M1427.24 706.76L1427.24 706.76" stroke="hsl(0, 34.9%, 97.9%)" stroke-width="1.5"></path><path d="M1427.24 706.76L1450.72 521.77" stroke="hsl(0, 34.9%, 97.9%)" stroke-width="1.5"></path><path d="M1569.57 57.54L1569.57 57.54" stroke="hsl(0, 34.9%, 97.9%)" stroke-width="1.5"></path><path d="M1569.57 57.54L1451.45 89.54" stroke="hsl(0, 34.9%, 97.9%)" stroke-width="1.5"></path><path d="M1569.57 57.54L1537.64 215.7" stroke="hsl(0, 34.9%, 97.9%)" stroke-width="1.5"></path><path d="M1569.57 57.54L1457.06 201.91" stroke="hsl(0, 34.9%, 97.9%)" stroke-width="1.5"></path><path d="M1569.57 57.54L1303.91 71.63" stroke="hsl(0, 34.9%, 97.9%)" stroke-width="1.5"></path><path d="M1537.64 215.7L1537.64 215.7" stroke="hsl(0, 34.9%, 97.9%)" stroke-width="1.5"></path><path d="M1537.64 215.7L1451.45 89.54" stroke="hsl(0, 34.9%, 97.9%)" stroke-width="1.5"></path><path d="M1537.64 215.7L1415.71 365.22" stroke="hsl(0, 34.9%, 97.9%)" stroke-width="1.5"></path><path d="M1561.23 411.89L1561.23 411.89" stroke="hsl(0, 34.9%, 97.9%)" stroke-width="1.5"></path><path d="M1561.23 411.89L1551.91 547.77" stroke="hsl(0, 34.9%, 97.9%)" stroke-width="1.5"></path><path d="M1561.23 411.89L1537.64 215.7" stroke="hsl(0, 34.9%, 97.9%)" stroke-width="1.5"></path><path d="M1561.23 411.89L1457.06 201.91" stroke="hsl(0, 34.9%, 97.9%)" stroke-width="1.5"></path><path d="M1561.23 411.89L1308.81 387.23" stroke="hsl(0, 34.9%, 97.9%)" stroke-width="1.5"></path><path d="M1551.91 547.77L1551.91 547.77" stroke="hsl(0, 34.9%, 97.9%)" stroke-width="1.5"></path><circle r="25" cx="387.64" cy="669.7" fill="url(#SvgjsRadialGradient1007)"></circle><circle r="25" cx="558.42" cy="695.08" fill="url(#SvgjsRadialGradient1007)"></circle><circle r="25" cx="845.33" cy="657.32" fill="url(#SvgjsRadialGradient1007)"></circle><circle r="25" cx="1126.78" cy="551.85" fill="url(#SvgjsRadialGradient1007)"></circle><circle r="25" cx="1241.03" cy="642.22" fill="url(#SvgjsRadialGradient1007)"></circle><circle r="25" cx="1604.15" cy="-97.49" fill="url(#SvgjsRadialGradient1007)"></circle><circle r="25" cx="1570.31" cy="685.7" fill="url(#SvgjsRadialGradient1007)"></circle><circle r="5" cx="-52.04" cy="533.11" fill="#ebd5d5"></circle><circle r="5" cx="-69.07" cy="667.26" fill="#ebd5d5"></circle><circle r="5" cx="77.67" cy="509.85" fill="#ebd5d5"></circle><circle r="5" cx="201.43" cy="501.52" fill="#ebd5d5"></circle><circle r="5" cx="251.18" cy="678.16" fill="#ebd5d5"></circle><circle r="5" cx="354.29" cy="511.13" fill="#ebd5d5"></circle><circle r="5" cx="671.99" cy="515.58" fill="#ebd5d5"></circle><circle r="5" cx="796.44" cy="400.99" fill="#ebd5d5"></circle><circle r="5" cx="861.63" cy="505.38" fill="#ebd5d5"></circle><circle r="5" cx="989.03" cy="358.91" fill="#ebd5d5"></circle><circle r="5" cx="1012.47" cy="560.19" fill="#ebd5d5"></circle><circle r="5" cx="941.72" cy="702.47" fill="#ebd5d5"></circle><circle r="5" cx="1160.61" cy="100.17" fill="#ebd5d5"></circle><circle r="5" cx="1132.91" cy="212.78" fill="#ebd5d5"></circle><circle r="5" cx="1125.91" cy="394.02" fill="#ebd5d5"></circle><circle r="5" cx="1122.84" cy="647.26" fill="#ebd5d5"></circle><circle r="5" cx="1248.69" cy="-81.38" fill="#ebd5d5"></circle><circle r="5" cx="1303.91" cy="71.63" fill="#ebd5d5"></circle><circle r="5" cx="1309.7" cy="202.06" fill="#ebd5d5"></circle><circle r="5" cx="1308.81" cy="387.23" fill="#ebd5d5"></circle><circle r="5" cx="1429.56" cy="-44.22" fill="#ebd5d5"></circle><circle r="5" cx="1451.45" cy="89.54" fill="#ebd5d5"></circle><circle r="5" cx="1457.06" cy="201.91" fill="#ebd5d5"></circle><circle r="5" cx="1415.71" cy="365.22" fill="#ebd5d5"></circle><circle r="5" cx="1450.72" cy="521.77" fill="#ebd5d5"></circle><circle r="5" cx="1427.24" cy="706.76" fill="#ebd5d5"></circle><circle r="5" cx="1569.57" cy="57.54" fill="#ebd5d5"></circle><circle r="5" cx="1537.64" cy="215.7" fill="#ebd5d5"></circle><circle r="5" cx="1561.23" cy="411.89" fill="#ebd5d5"></circle><circle r="5" cx="1551.91" cy="547.77" fill="#ebd5d5"></circle></g><defs><mask id="SvgjsMask1006"><rect width="1440" height="560" fill="#ffffff"></rect></mask><radialGradient id="SvgjsRadialGradient1007"><stop stop-color="#ffffff" offset="0.1"></stop><stop stop-color="rgba(214, 170, 170, 1)" offset="0.2"></stop><stop stop-color="rgba(214, 170, 170, 0)" offset="1"></stop></radialGradient></defs></svg>