<svg id="visual" viewBox="0 0 900 600" width="900" height="600" xmlns="http://www.w3.org/2000/svg" xmlns:xlink="http://www.w3.org/1999/xlink" version="1.1"><path d="M0 373L82 373L82 265L164 265L164 181L245 181L245 133L327 133L327 307L409 307L409 223L491 223L491 139L573 139L573 205L655 205L655 343L736 343L736 139L818 139L818 133L900 133L900 235L900 0L900 0L818 0L818 0L736 0L736 0L655 0L655 0L573 0L573 0L491 0L491 0L409 0L409 0L327 0L327 0L245 0L245 0L164 0L164 0L82 0L82 0L0 0Z" fill="#e5e2e1"></path><path d="M0 469L82 469L82 433L164 433L164 331L245 331L245 349L327 349L327 379L409 379L409 337L491 337L491 295L573 295L573 385L655 385L655 421L736 421L736 325L818 325L818 325L900 325L900 379L900 233L900 131L818 131L818 137L736 137L736 341L655 341L655 203L573 203L573 137L491 137L491 221L409 221L409 305L327 305L327 131L245 131L245 179L164 179L164 263L82 263L82 371L0 371Z" fill="#d0caca"></path><path d="M0 601L82 601L82 601L164 601L164 601L245 601L245 601L327 601L327 601L409 601L409 601L491 601L491 601L573 601L573 601L655 601L655 601L736 601L736 601L818 601L818 601L900 601L900 601L900 377L900 323L818 323L818 323L736 323L736 419L655 419L655 383L573 383L573 293L491 293L491 335L409 335L409 377L327 377L327 347L245 347L245 329L164 329L164 431L82 431L82 467L0 467Z" fill="#bbb3b6"></path></svg>